<?xml version="1.0" encoding="utf-8"?>
<!-- Generator: Adobe Illustrator 24.1.2, SVG Export Plug-In . SVG Version: 6.00 Build 0)  -->
<svg version="1.1" id="Capa_1" xmlns="http://www.w3.org/2000/svg" xmlns:xlink="http://www.w3.org/1999/xlink" x="0px" y="0px"
	 width="28.3px" height="28.3px" viewBox="0 0 28.3 28.3" style="enable-background:new 0 0 28.3 28.3;" xml:space="preserve">
<path d="M14.2,10.8c-1.9,0-3.4,1.5-3.4,3.4s1.5,3.4,3.4,3.4s3.4-1.5,3.4-3.4S16,10.8,14.2,10.8z M22.1,8.2c-0.3-0.9-1-1.6-1.9-1.9
	c-1.3-0.5-4.5-0.4-6-0.4s-4.6-0.1-6,0.4c-0.9,0.3-1.6,1-1.9,1.9c-0.5,1.3-0.4,4.5-0.4,6s-0.1,4.6,0.4,6c0.3,0.9,1,1.6,1.9,1.9
	c1.3,0.5,4.5,0.4,6,0.4s4.6,0.1,6-0.4c0.9-0.3,1.6-1,1.9-1.9c0.5-1.3,0.4-4.5,0.4-6S22.6,9.5,22.1,8.2L22.1,8.2z M14.2,19.4
	C11.3,19.4,9,17,9,14.2S11.3,9,14.2,9s5.2,2.3,5.2,5.2S17,19.4,14.2,19.4C14.2,19.4,14.2,19.4,14.2,19.4z M19.6,10
	c-0.7,0-1.2-0.5-1.2-1.2c0-0.7,0.5-1.2,1.2-1.2s1.2,0.5,1.2,1.2l0,0C20.8,9.4,20.2,10,19.6,10L19.6,10L19.6,10z M25.3,0H3
	C1.4,0,0,1.4,0,3v22.3c0,1.7,1.4,3,3,3h22.3c1.7,0,3-1.4,3-3V3C28.3,1.4,27,0,25.3,0z M24.2,18.3c-0.1,1.6-0.4,3.1-1.6,4.2
	c-1.2,1.2-2.6,1.6-4.2,1.6c-1.7,0.1-6.7,0.1-8.3,0c-1.6-0.1-3-0.4-4.2-1.6S4.2,20,4.1,18.3C4,16.7,4,11.7,4.1,10
	c0.1-1.6,0.4-3.1,1.6-4.2S8.4,4.2,10,4.1c1.7-0.1,6.7-0.1,8.3,0c1.6,0.1,3.1,0.4,4.2,1.6s1.6,2.6,1.6,4.2
	C24.3,11.7,24.3,16.7,24.2,18.3z"/>
</svg>
