<?xml version="1.0" encoding="utf-8"?>
<!-- Generator: Adobe Illustrator 24.1.2, SVG Export Plug-In . SVG Version: 6.00 Build 0)  -->
<svg version="1.1" id="Capa_1" xmlns="http://www.w3.org/2000/svg" xmlns:xlink="http://www.w3.org/1999/xlink" x="0px" y="0px"
	 width="28.3px" height="28.3px" viewBox="0 0 28.3 28.3" style="enable-background:new 0 0 28.3 28.3;" xml:space="preserve">
<path d="M25.3,0H3C1.4,0,0,1.4,0,3v22.3c0,1.7,1.4,3,3,3h8.7v-9.6h-4v-4.5h4v-3.5c0-3.9,2.3-6.1,5.9-6.1c1.7,0,3.5,0.3,3.5,0.3v3.9
	h-2c-1.9,0-2.6,1.2-2.6,2.4v2.9H21l-0.7,4.5h-3.6v9.6h8.7c1.7,0,3-1.4,3-3V3C28.3,1.4,27,0,25.3,0z"/>
</svg>
