<?xml version="1.0" encoding="utf-8"?>
<!-- Generator: Adobe Illustrator 24.1.2, SVG Export Plug-In . SVG Version: 6.00 Build 0)  -->
<svg version="1.1" id="Capa_1" xmlns="http://www.w3.org/2000/svg" xmlns:xlink="http://www.w3.org/1999/xlink" x="0px" y="0px"
	 width="47.8px" height="48.3px" viewBox="0 0 47.8 48.3" style="enable-background:new 0 0 47.8 48.3;" xml:space="preserve">
<style type="text/css">
	.st0{fill:#FFFFFF;}
	.st1{fill:#239725;stroke:#439F1E;stroke-miterlimit:10;}
</style>
<path class="st0" d="M23.5,1.8c0.7,0,1.4,0,2.1,0c0.5,0.1,1,0.1,1.5,0.2c9,1,16.6,7.8,18.7,16.6c0.3,1.2,0.4,2.3,0.6,3.5
	c0,1,0,2.1,0,3.1c-0.1,0.4-0.1,0.8-0.2,1.2c-2,14.9-18.2,23.4-31.5,16.6c-0.5-0.2-0.9-0.3-1.4-0.1c-3.5,1.1-7,2.2-10.5,3.4
	c-0.2,0.1-0.4,0.2-0.6,0.3c0,0-0.1,0-0.1,0c0.1-0.3,0.1-0.6,0.2-0.9c1.1-3.3,2.2-6.6,3.4-9.9c0.2-0.6,0.2-1-0.1-1.5
	c-7-12.7,0.1-28.6,14.3-31.8C21,2.1,22.3,2,23.5,1.8z M7.6,41c0.4-0.1,0.7-0.2,0.9-0.3c1.8-0.6,3.6-1.2,5.5-1.7
	c0.3-0.1,0.8,0,1.1,0.1c3.9,2.3,8,3.1,12.5,2.4c8.8-1.4,15.4-9.4,15.2-18.2c-0.2-9.1-7.1-17-16.5-17.8C18.8,5,12.8,8,9,14.4
	c-3.8,6.4-3.5,13,0.5,19.3c0.3,0.4,0.3,0.8,0.1,1.2C9,36.9,8.3,38.9,7.6,41z"/>
<path class="st0" d="M7.6,41c0.7-2.1,1.4-4.1,2-6c0.2-0.5,0.1-0.8-0.1-1.2c-4-6.3-4.3-12.9-0.5-19.3C12.8,8,18.8,5,26.3,5.6
	c9.4,0.8,16.3,8.7,16.5,17.8c0.2,8.7-6.4,16.8-15.2,18.2c-4.5,0.7-8.6-0.1-12.5-2.4C14.8,39,14.3,38.9,14,39
	c-1.8,0.5-3.6,1.2-5.5,1.7C8.3,40.8,8,40.9,7.6,41z M15.9,13.6c-1.9,1.6-2.5,3.6-2.1,6c0.4,2.1,1.6,3.8,2.7,5.6
	c2.9,4.4,6.9,7.4,12,9c1.2,0.3,2.3,0.4,3.4,0.2c2.3-0.5,3.7-2,3.9-4.3c0-0.4-0.1-0.9-0.4-1.1c-1.5-0.9-3-1.6-4.5-2.4
	c-0.5-0.3-0.9-0.1-1.3,0.3c-0.5,0.7-1.1,1.3-1.7,1.9c-0.3,0.4-0.7,0.5-1.2,0.3c-3.3-1.4-5.7-3.7-7.4-6.9c-0.3-0.5-0.2-0.8,0.2-1.2
	c0.4-0.4,0.8-0.9,1.2-1.3c0.4-0.5,0.5-1.1,0.2-1.8c-0.5-1.1-0.9-2.3-1.3-3.5"/>
<path class="st0" d="M18.9,13.2c0.4,0.2,0.6,0.5,0.9,1.3c0.4,1.2,0.8,2.4,1.3,3.5c0.3,0.7,0.2,1.3-0.2,1.8c-0.4,0.5-0.8,0.9-1.2,1.3
	c-0.4,0.4-0.4,0.7-0.2,1.2c1.7,3.1,4.1,5.4,7.4,6.9c0.5,0.2,0.9,0.1,1.2-0.3c0.6-0.6,1.1-1.3,1.7-1.9c0.4-0.5,0.8-0.6,1.3-0.3
	c1.5,0.8,3,1.5,4.5,2.4c0.3,0.1,0.4,0.7,0.4,1.1c-0.2,2.3-1.7,3.8-3.9,4.3c-1.2,0.2-2.3,0.2-3.4-0.2c-5.1-1.5-9.1-4.5-12-9
	c-1.1-1.7-2.3-3.5-2.7-5.6c-0.4-2.4,0.2-4.5,2.1-6c0.5-0.4,1.1-0.7,1.8-0.8C18.1,12.8,18.5,12.9,18.9,13.2z"/>
<path class="st1" d="M7.6,41c0.7-2.1,1.4-4.1,2-6c0.2-0.5,0.1-0.8-0.1-1.2c-4-6.3-4.3-12.9-0.5-19.3C12.8,8,18.8,5,26.3,5.6
	c9.4,0.8,16.3,8.7,16.5,17.8c0.2,8.7-6.4,16.8-15.2,18.2c-4.5,0.7-8.6-0.1-12.5-2.4C14.8,39,14.3,38.9,14,39
	c-1.8,0.5-3.6,1.2-5.5,1.7C8.3,40.8,8,40.9,7.6,41z M15.9,13.6c-2.1,1.3-2.5,3.6-2.1,6c0.4,2.1,1.6,3.8,2.7,5.6
	c2.9,4.4,6.9,7.4,12,9c1.2,0.3,2.3,0.4,3.4,0.2c2.3-0.5,3.7-2,3.9-4.3c0-0.4-0.1-0.9-0.4-1.1c-1.5-0.9-3-1.6-4.5-2.4
	c-0.5-0.3-0.9-0.1-1.3,0.3c-0.5,0.7-1.1,1.3-1.7,1.9c-0.3,0.4-0.7,0.5-1.2,0.3c-3.3-1.4-5.7-3.7-7.4-6.9c-0.3-0.5-0.2-0.8,0.2-1.2
	c0.4-0.4,0.8-0.9,1.2-1.3c0.4-0.5,0.5-1.1,0.2-1.8c-0.5-1.1-0.9-2.3-1.3-3.5c-0.3-1-0.6-2.1-1.9-1.7C17.3,12.9,16.3,13.3,15.9,13.6z
	"/>
</svg>
