<?xml version="1.0" encoding="utf-8"?>
<!-- Generator: Adobe Illustrator 24.1.2, SVG Export Plug-In . SVG Version: 6.00 Build 0)  -->
<svg version="1.0" id="Capa_1" xmlns="http://www.w3.org/2000/svg" xmlns:xlink="http://www.w3.org/1999/xlink" x="0px" y="0px"
	 width="141.846px" height="145.999px" viewBox="0 0 141.846 145.999" style="enable-background:new 0 0 141.846 145.999;"
	 xml:space="preserve">
<g>
	<g>
		<path d="M67.629,25.624v-0.91c0.006-0.003,0.009-0.003,0.009-0.003v-1.006c-0.009-0.003-0.018-0.006-0.03-0.006
			c-0.111-0.564-0.608-0.991-1.195-0.991h-18.56c-0.623,0-1.129,0.47-1.207,1.069c0,0.003-0.009,0.008-0.015,0.009v0.142v0.069
			v0.292v0.653v0.562v0.749v1.083v0.824v0.62v0.735v0.127v0.719v2.432v0.765v0.758v0.277v1.755c0.297,0.078,0.587,0.156,0.881,0.226
			c-0.039,0.241-0.084,0.481-0.126,0.72c-0.255,0.021-0.503,0.049-0.755,0.081V39.7c0.114,0.006,0.231,0.012,0.341,0.012
			c-0.018,0.114-0.042,0.223-0.06,0.336c-0.093,0.013-0.18,0.028-0.282,0.046v1.427c0.015,0.002,0.024,0.002,0.039,0.002
			c-0.015,0.076-0.024,0.156-0.039,0.235v6.544c0.614,0.075,1.222,0.142,1.833,0.204c-0.611-0.015-1.219-0.024-1.833-0.015v2.091
			c1.812,0.184,3.648,0.234,5.481,0.272c0.315,0.045,0.632,0.075,0.95,0.111c-2.153,0.105-4.307,0.193-6.43,0.386v4.623
			c6.972,0.948,14.08,0.246,21.007,1.373v-1.006c-4.792-0.698-9.656-0.605-14.511-0.807c4.837-0.025,9.683,0.415,14.511,0.055
			v-1.363c-0.443-0.06-0.889-0.115-1.333-0.154c0.443-0.013,0.89-0.029,1.333-0.045v-0.969c-0.62,0.011-1.237,0.013-1.854,0.027
			c0.62-0.099,1.24-0.219,1.854-0.353v-2.755c-0.566-0.081-1.141-0.15-1.713-0.216c0.251-0.251,0.344-0.599-0.087-0.668
			c0.204,0.003,0.41,0.006,0.614,0.006c0.069,0,0.141-0.006,0.21-0.027c0.285,0.018,0.557,0.027,0.833,0.043
			c0.051,0.058,0.09,0.118,0.144,0.175v-23.12C67.629,26.171,67.683,25.786,67.629,25.624z M66.898,43.723
			c-0.267,0.012-0.533,0.021-0.794,0.033c0.066-0.37,0.132-0.749,0.189-1.123l0.539-0.06C66.85,42.956,66.874,43.339,66.898,43.723z
			 M66.775,40.573c0.006,0.361,0.018,0.723,0.024,1.084c-0.126,0.006-0.249,0.021-0.38,0.025c0.051-0.386,0.09-0.785,0.123-1.18
			L66.775,40.573z M58.389,42.609c0.027-0.304,0.069-0.611,0.111-0.917c0.24-0.034,0.479-0.073,0.707-0.102
			c-0.039,0.305-0.081,0.612-0.117,0.925C58.857,42.546,58.614,42.582,58.389,42.609z M59,43.461
			c-0.021,0.238-0.042,0.478-0.057,0.723c-0.216,0.013-0.434,0.029-0.647,0.048c-0.003-0.225,0-0.455,0.006-0.683
			C58.536,43.519,58.77,43.491,59,43.461z M53.867,40.548c0.018-0.114,0.036-0.228,0.06-0.338c0.857-0.033,1.722-0.052,2.582-0.069
			c-0.006,0.057-0.015,0.111-0.024,0.165C55.616,40.374,54.744,40.458,53.867,40.548z M56.221,42.028
			c-0.051,0.289-0.12,0.581-0.186,0.871c-0.03,0.003-0.054,0.011-0.081,0.015c-0.812,0.087-1.614,0.186-2.417,0.303
			c0.018-0.261,0.042-0.517,0.072-0.779c0.042-0.006,0.084-0.015,0.129-0.021C54.562,42.276,55.388,42.147,56.221,42.028z
			 M47.646,43.923c0.027-0.18,0.066-0.358,0.09-0.533c0.294-0.03,0.581-0.063,0.872-0.102c0.006,0.231,0.015,0.463,0.024,0.698
			C48.302,43.974,47.973,43.956,47.646,43.923z M49.249,37.192c-0.153,0.007-0.318,0.013-0.473,0.018
			c0.018-0.121,0.045-0.243,0.066-0.365c0.147,0.031,0.297,0.064,0.449,0.094C49.282,37.023,49.261,37.11,49.249,37.192z
			 M50.776,43.762c-0.228,0.057-0.458,0.114-0.686,0.177c-0.021,0-0.03,0-0.048,0c-0.024-0.285-0.036-0.572-0.042-0.866
			c0.326-0.052,0.65-0.114,0.982-0.171C50.923,43.19,50.86,43.483,50.776,43.762z M51.324,40.728c-0.401,0.015-0.8,0.027-1.198,0.03
			c0.012-0.105,0.021-0.21,0.033-0.313c0.404-0.036,0.806-0.07,1.207-0.097C51.351,40.476,51.336,40.602,51.324,40.728z
			 M52.16,44.84c-0.135,0.016-0.264,0.03-0.401,0.045c0.051-0.15,0.114-0.291,0.156-0.443c0.087-0.008,0.171-0.024,0.258-0.039
			C52.169,44.545,52.16,44.693,52.16,44.84z M53.511,44.197c0.746-0.112,1.506-0.217,2.258-0.32c-0.06,0.202-0.129,0.4-0.207,0.598
			c-0.677,0.063-1.357,0.135-2.039,0.21C53.517,44.524,53.511,44.364,53.511,44.197z M57.644,49.105
			c-0.371-0.027-0.752-0.048-1.12-0.082c-0.371-0.023-0.728-0.055-1.096-0.084c2.147,0.069,4.292,0.091,6.442,0.111
			C60.459,49.063,59.054,49.078,57.644,49.105z M63.529,43.878c-0.033,0-0.063,0.004-0.099,0.008c0-0.31,0.018-0.627,0.039-0.933
			c0.057-0.01,0.117-0.012,0.174-0.024C63.607,43.247,63.574,43.566,63.529,43.878z M64.275,47.137
			c0.018-0.048,0.033-0.096,0.039-0.144c0.509,0.003,1.018,0.007,1.524,0.003c0.527,0,1.474-0.777,0.509-0.839
			c-0.267-0.024-0.542-0.033-0.812-0.045c0.048-0.172,0.093-0.341,0.138-0.511c0.066-0.1,0.096-0.187,0.075-0.274
			c0.054-0.201,0.099-0.41,0.15-0.614c0.356-0.025,0.719-0.048,1.069-0.069c0.081,0.934,0.192,1.869,0.341,2.799
			C66.302,47.311,65.29,47.215,64.275,47.137z"/>
		<path d="M67.638,90.12c-0.03,0-0.066,0.002-0.093,0.006h0.093V90.12z"/>
		<path d="M57.165,56.991c-2.022-0.072-4.046-0.13-6.071-0.183c-1.486-0.139-2.968-0.219-4.463-0.183v5.334
			c0.174,0.051,0.353,0.093,0.536,0.13c-0.183,0.049-0.362,0.109-0.536,0.159v3.224c0.755-0.031,1.521-0.081,2.276-0.15
			c0.081,0,0.159,0,0.231,0c-0.716,0.256-1.417,0.583-2.081,1.009c-0.315,0.207-0.324,0.593,0.045,0.725
			c0.045,0.013,0.096,0.027,0.144,0.04c-0.207,0.052-0.413,0.115-0.614,0.168v5.443c1.635,0.409,3.319,0.49,5.002,0.46
			c-1.671,0.156-3.339,0.367-5.002,0.671v5.259c0.009,0,0.021,0.003,0.03,0.003c-0.009,0.006-0.021,0.015-0.03,0.018v1.758
			c1.399,0.633,2.881,0.963,4.403,1.117c-0.32,0.183-0.635,0.365-0.952,0.544c-0.883-0.025-3.247,0.036-3.468,0.021l0.018,2.091
			c0.282-0.132,0.566-0.278,0.86-0.394c-0.305,0.259-0.59,0.542-0.86,0.859v5.011h0.593c0.18-0.139,0.359-0.282,0.533-0.43
			c0.246,0.096,0.59,0.078,0.821-0.129c0.278-0.243,0.557-0.488,0.838-0.729c-0.114,0.19-0.234,0.382-0.338,0.589
			c-0.344,0.675,0.809,0.586,1.111,0.391c0.066-0.043,0.123-0.079,0.189-0.121c0.063,0.34,0.952,0.261,1.18,0.121
			c0.234-0.142,0.467-0.295,0.698-0.448c-0.21,0.255-0.422,0.505-0.629,0.756h1.644c1.249-1.197,2.396-2.431,3.241-3.915
			c0.554-0.496,1.138-0.927,1.773-1.247c-0.788,1.971-2.204,3.547-3.576,5.162h1.524c0.123-0.147,0.258-0.285,0.383-0.436
			c0.117,0.367,0.958,0.4,1.249,0.016c0.851-1.099,1.668-2.21,2.522-3.299c-0.707,1.147-1.429,2.294-2.022,3.507
			c-0.033,0.079-0.045,0.151-0.045,0.211h1.333c0.186-0.228,0.356-0.458,0.527-0.699c0.278,0.117,0.728,0.069,0.919-0.102
			c0.371-0.35,0.713-0.72,1.045-1.098c-0.249,0.514-0.479,1.032-0.674,1.565c-0.051,0.139-0.039,0.249,0.009,0.334h1.171
			c0.551-0.352,1.051-0.75,1.491-1.186c-0.039,0.12-0.081,0.238-0.108,0.368c-0.126,0.529,0.746,0.466,1,0.359
			c0.309-0.145,0.593-0.298,0.863-0.47c-0.045,0.319-0.042,0.624,0.009,0.929h1.638c-0.207-0.274-0.063-1.011,0.093-1.583V85.77
			c-0.294,0.389-0.578,0.795-0.838,1.21c-0.303,0.353-0.629,0.683-0.982,0.982c0.458-1.226,1.117-2.326,1.821-3.417V82.36
			c0,0.002-0.009,0.008-0.012,0.008c-0.03,0.042-0.06,0.082-0.099,0.121c-0.746-0.165-1.494-0.311-2.246-0.446
			c-0.129-0.16-0.467-0.199-0.779-0.135c-0.18-0.028-0.359-0.055-0.545-0.082c-0.174-0.481-0.24-1.135-0.237-1.873
			c0.617-0.013,1.237-0.03,1.857-0.054c0.075,0,0.15,0,0.228,0.004c-0.003,0.057-0.015,0.124-0.021,0.184
			c-0.051,0.394,1.138,0.184,1.327-0.148c0.18,0,0.35,0,0.527,0.006v-1.092c-0.123-0.012-0.249-0.013-0.377-0.019
			c0.012-0.051,0.018-0.108,0.024-0.156c0.12,0.007,0.237,0.007,0.353,0.007V77.71c-0.078,0-0.162-0.008-0.243-0.008
			c0.015-0.148,0.027-0.288,0.036-0.436c0.072-0.006,0.141-0.007,0.207-0.007V75.48c-0.015-0.003-0.03-0.012-0.054-0.019
			c0.024-0.237,0.042-0.487,0.054-0.722V62.411h-0.009c0-0.057-0.003-0.115-0.006-0.174c0.006,0,0.012,0,0.015,0v-1.632
			c-2.01-0.231-4.031-0.313-6.047-0.358c-0.153-0.061-0.347-0.058-0.527-0.01c-0.41-0.006-0.818-0.009-1.222-0.021
			c0.189-0.124,0.353-0.282,0.383-0.427c2.477,0.136,4.936,0.302,7.412,0.264v-2.664C64.155,57.464,60.663,57.122,57.165,56.991z
			 M47.35,87.333c-0.042,0.036-0.099,0.072-0.153,0.109c0.29-0.488,0.605-0.952,0.955-1.391c0.081-0.008,0.159-0.008,0.249-0.008
			C48.042,86.463,47.688,86.894,47.35,87.333z M49.318,85.004c-0.093,0.006-0.183,0.011-0.273,0.019
			c0.225-0.232,0.449-0.467,0.668-0.707c0.123-0.084,0.237-0.171,0.356-0.25h0.138C49.902,84.371,49.608,84.687,49.318,85.004z
			 M47.985,62.807c0.464-0.109,0.938-0.21,1.408-0.303c0.171,0.027,0.341,0.057,0.518,0.082c0.096,0.036,0.195,0.073,0.288,0.108
			C49.461,62.726,48.728,62.763,47.985,62.807z M48.838,68.246c-0.641-0.006-1.267-0.045-1.89-0.144
			c0.83-0.228,1.677-0.395,2.525-0.497c0.488,0.06,0.976,0.102,1.471,0.126C50.222,67.848,49.512,67.996,48.838,68.246z
			 M51.324,60.312c-1.489-0.088-2.932-0.32-4.145-0.946c0.863,0.105,1.695,0.222,2.462,0.272c1.89,0.133,3.783,0.294,5.678,0.452
			C53.975,60.053,52.63,60.086,51.324,60.312z M56.086,73.791c0,0.088-0.006,0.18-0.012,0.267c-1.728,0.127-3.438,0.286-5.124,0.538
			c-0.051,0.001-0.096,0.004-0.141,0.004c-0.889-0.039-1.779-0.075-2.668-0.088C50.773,74.103,53.43,73.921,56.086,73.791z
			 M55.943,75.748l-0.003,0.082c-1.986-0.025-3.965-0.061-5.948-0.171c0.312-0.049,0.62-0.094,0.925-0.144
			c1.587,0.072,3.178,0.169,4.774,0.228C55.769,75.748,55.856,75.744,55.943,75.748z M48.539,77.692
			c0.32,0.045,0.644,0.097,0.964,0.142c-0.758-0.006-1.521-0.015-2.279-0.015C47.649,77.747,48.087,77.702,48.539,77.692z
			 M48.236,79.377c0.015-0.016,0.024-0.031,0.036-0.042c2.501,0.332,5.011,0.52,7.529,0.612c0.012,0.244,0.033,0.49,0.057,0.729
			C53.313,80.284,50.779,79.786,48.236,79.377z M54.834,84.058c-0.051,0.001-0.099,0.009-0.144,0.025
			c-0.042,0.012-0.084,0.028-0.111,0.046c-0.153,0.037-0.296,0.075-0.44,0.112c0.069-0.087,0.123-0.184,0.192-0.276l0.97-0.036
			C55.149,83.971,54.99,84.018,54.834,84.058z M55.367,82.691c-1.084-0.031-2.174-0.064-3.265-0.094
			c0.15-0.108,0.296-0.216,0.437-0.331c0.078-0.051,0.126-0.099,0.168-0.151c1.12,0.048,2.252,0.019,3.372-0.005
			c0.048,0.201,0.105,0.391,0.165,0.592C55.954,82.701,55.658,82.689,55.367,82.691z M65.748,84.028
			c0.204,0.004,0.404,0.012,0.611,0.012c-0.854,1.268-1.629,2.622-2.609,3.76C64.394,86.532,65.122,85.308,65.748,84.028z
			 M66.054,77.668c-0.71-0.018-1.435-0.033-2.147-0.048c0.009-0.094,0.021-0.193,0.03-0.283c0.716,0,1.435-0.007,2.156-0.024
			C66.081,77.432,66.072,77.548,66.054,77.668z M66.266,75.145c-0.635-0.126-1.273-0.208-1.92-0.267
			c0.018-0.084,0.027-0.169,0.042-0.244c0.638-0.024,1.276-0.039,1.914-0.061C66.287,74.758,66.278,74.953,66.266,75.145z
			 M65.988,64.318c0.105-0.009,0.198-0.021,0.29-0.031c0.027,0,0.045,0,0.063,0c0.006,0.27,0.021,0.548,0.03,0.815
			c-0.159-0.033-0.326-0.072-0.491-0.109C65.916,64.763,65.952,64.539,65.988,64.318z M65.371,68.189
			c0.371-0.238,0.611-0.681,0.132-0.782c0.009-0.073,0.021-0.157,0.033-0.232c0.302-0.008,0.596-0.018,0.901-0.025
			c0.012,0.365,0.015,0.734,0.024,1.101c-0.365-0.017-0.728-0.039-1.093-0.046C65.371,68.201,65.371,68.193,65.371,68.189z
			 M65.173,69.502c0.425-0.03,0.854-0.056,1.279-0.087c0,0.187,0,0.364,0,0.542c-0.41,0-0.821-0.015-1.234-0.015
			c-0.042,0-0.078,0-0.114-0.003C65.128,69.796,65.146,69.647,65.173,69.502z M65.137,72.735c0.422-0.003,0.836-0.008,1.252-0.009
			c-0.006,0.289-0.024,0.578-0.042,0.866c-0.59,0.024-1.186,0.049-1.782,0.073c0.027-0.127,0.045-0.229,0.054-0.328
			C64.922,73.231,65.173,72.957,65.137,72.735z M64.158,64.516c0.039-0.019,0.066-0.039,0.093-0.054
			c0.138-0.015,0.272-0.025,0.401-0.036c-0.015,0.102-0.033,0.204-0.042,0.313c-0.237-0.043-0.464-0.09-0.695-0.126
			C63.996,64.578,64.08,64.551,64.158,64.516z M62.621,67.265c0.533-0.015,1.066-0.033,1.596-0.046
			c-0.006,0.046-0.018,0.096-0.021,0.147c-0.527-0.016-1.048-0.031-1.578-0.031L62.621,67.265z M62.505,69.719
			c0.44-0.033,0.892-0.072,1.342-0.105c-0.018,0.081-0.024,0.165-0.033,0.246c-0.437-0.019-0.884-0.019-1.315-0.031
			C62.499,69.793,62.499,69.76,62.505,69.719z M62.418,71.161c0.398-0.009,0.8-0.024,1.204-0.045
			c-0.018,0.085-0.027,0.165-0.036,0.243c-0.398,0.036-0.791,0.073-1.183,0.102C62.403,71.364,62.412,71.266,62.418,71.161z
			 M63.286,73.463c-0.009,0.085-0.018,0.171-0.03,0.261c-0.293,0.012-0.578,0.019-0.871,0.036c-0.006,0-0.015,0-0.021,0
			c0-0.079-0.009-0.16-0.009-0.246C62.669,73.501,62.975,73.483,63.286,73.463z M59.755,73.634c0.401-0.018,0.797-0.035,1.195-0.054
			c0,0.076,0.006,0.154,0.006,0.232c-0.404,0.012-0.815,0.025-1.216,0.04C59.749,73.782,59.755,73.707,59.755,73.634z M59.629,75.73
			c0.449-0.009,0.904-0.013,1.363-0.013v0.178c-0.458-0.009-0.919-0.018-1.381-0.027C59.611,75.823,59.617,75.774,59.629,75.73z
			 M57.473,73.727c0.201-0.007,0.392-0.019,0.59-0.022c0,0.078-0.006,0.157-0.009,0.238c-0.198,0.008-0.401,0.018-0.599,0.028
			C57.464,73.891,57.473,73.81,57.473,73.727z M57.838,82.715c0.105-0.198,0.204-0.395,0.294-0.6
			c0.701,0.096,1.402,0.184,2.102,0.278c0,0.124,0.012,0.259,0.03,0.389C59.459,82.749,58.65,82.731,57.838,82.715z M60.89,81.373
			c-0.069-0.013-0.138-0.023-0.201-0.033c-0.012-0.124-0.135-0.219-0.425-0.226c-0.437-0.006-0.869-0.003-1.309,0
			c-0.135-0.018-0.263-0.03-0.389-0.049c0.12-0.349,0.231-0.695,0.332-1.045c0.701,0.007,1.402,0.004,2.102-0.005
			C60.983,80.467,60.944,80.918,60.89,81.373z M60.95,77.568c-0.509-0.016-1.018-0.039-1.521-0.058
			c0.003-0.042,0.009-0.082,0.012-0.12c0.533,0.017,1.066,0.025,1.599,0.025c0,0.046,0,0.102,0,0.157
			C61.007,77.572,60.983,77.572,60.95,77.568z M61.04,71.206c0,0.087-0.009,0.165-0.009,0.25c-0.398-0.006-0.806-0.012-1.204-0.013
			c0.006-0.061,0.012-0.127,0.012-0.193C60.234,71.235,60.645,71.218,61.04,71.206z"/>
		<path d="M93.536,83.538c0.207-0.011,0.422-0.031,0.635-0.039c-0.054,0.039-0.093,0.069-0.102,0.106
			c-0.21,0.515-0.434,1.083-0.623,1.668c-0.066-0.004-0.135-0.004-0.198-0.004C93.338,84.67,93.452,84.074,93.536,83.538z
			 M93.802,38.802c0.006-0.003,0.015-0.003,0.015-0.006c0.063-0.051,0.117-0.106,0.18-0.162c0.303-0.017,0.614-0.039,0.923-0.054
			c0.021,0.06,0.045,0.123,0.072,0.186C94.596,38.781,94.201,38.793,93.802,38.802z M94.991,50.237
			c-0.006,0.132-0.024,0.264-0.033,0.391c-0.213,0.008-0.422,0.01-0.638,0.01c0.015-0.145,0.036-0.278,0.048-0.419
			C94.575,50.225,94.785,50.228,94.991,50.237z M94.102,41.168c-0.009,0.064-0.024,0.138-0.03,0.207
			c-0.719,0.063-1.444,0.126-2.165,0.187l0.003-0.094C92.643,41.375,93.374,41.27,94.102,41.168z M93.452,68.435
			c0.096,0.054,0.231,0.072,0.374,0.069c-0.009,0.115-0.018,0.225-0.03,0.34c-0.123,0.127-0.249,0.259-0.374,0.386
			c-0.048,0-0.096,0-0.153,0C93.335,68.966,93.398,68.703,93.452,68.435z M91.871,60.228c0.009-0.07,0.018-0.142,0.018-0.213
			c0.299-0.263,0.548-0.563,0.74-0.916c0.093,0.395,0.207,0.783,0.356,1.171c0.066,0.174,0.219,0.247,0.416,0.257
			c0.003,0.031,0.006,0.061,0.015,0.094c-0.042-0.001-0.084-0.012-0.123-0.016C92.826,60.454,92.353,60.324,91.871,60.228z
			 M91.787,43.546c0.042-0.409,0.066-0.812,0.093-1.209c0.686-0.043,1.378-0.085,2.064-0.13c-0.069,0.446-0.147,0.901-0.201,1.354
			C93.089,43.549,92.437,43.546,91.787,43.546z M92.077,40.063c-1.021,0.06-2.045,0.127-3.061,0.201
			c0.066-0.03,0.132-0.063,0.183-0.094c1.027-0.045,2.037-0.09,3.061-0.124C92.197,40.051,92.134,40.055,92.077,40.063z
			 M87.324,35.448c0.009-0.045,0.009-0.085,0.024-0.126c0.03-0.054,0.066-0.102,0.093-0.156c0.15,0.004,0.297,0.012,0.443,0.013
			c-0.054,0.103-0.108,0.205-0.159,0.31C87.591,35.472,87.456,35.461,87.324,35.448z M87.627,38.437
			c-0.437,0.027-0.881,0.06-1.318,0.087c-0.042,0-0.084-0.008-0.123-0.009c0.003-0.084,0.012-0.162,0.021-0.25
			c0.132,0.058,0.32,0.043,0.515-0.003c0.296-0.004,0.593-0.004,0.886-0.004C87.615,38.317,87.621,38.377,87.627,38.437z
			 M90.61,40.928c-0.015,0.024-0.027,0.046-0.03,0.069c-0.341,0.039-0.683,0.084-1.018,0.123c-0.641,0.078-1.282,0.147-1.917,0.219
			c0-0.021,0-0.039-0.003-0.057C88.633,41.156,89.621,41.045,90.61,40.928z M89.687,37.062c-0.054,0.186-0.114,0.367-0.171,0.552
			c-0.18-0.004-0.356-0.004-0.542-0.004c-0.003-0.196,0.012-0.392,0.021-0.587C89.226,37.032,89.46,37.047,89.687,37.062z
			 M89.172,35.671c0.027-0.15,0.054-0.301,0.09-0.451c0.291,0.006,0.584,0.021,0.878,0.033c-0.045,0.177-0.099,0.347-0.135,0.532
			C89.729,35.75,89.454,35.707,89.172,35.671z M92.17,37.667c-0.198-0.009-0.41-0.016-0.611-0.019
			c-0.018-0.147-0.048-0.289-0.051-0.442c0.195,0.018,0.392,0.042,0.59,0.061c0.021,0.133,0.045,0.265,0.075,0.394
			C92.173,37.664,92.173,37.664,92.17,37.667z M92.005,35.975c-0.165-0.012-0.324-0.024-0.47-0.031
			c0.015-0.193,0.033-0.394,0.063-0.589c0.147,0.008,0.294,0.021,0.443,0.036C92.023,35.588,92.014,35.783,92.005,35.975z
			 M90.46,34.071c-0.003,0-0.003,0-0.003,0l0,0H90.46z M84.898,72.406c0.024-0.064,0.048-0.123,0.069-0.189
			c0.575-0.111,1.132-0.205,1.671-0.259c-0.015,0.105-0.039,0.216-0.051,0.318C86.021,72.316,85.464,72.364,84.898,72.406z
			 M86.453,73.562c-0.006,0.162-0.015,0.318-0.027,0.476c-0.575-0.008-1.153-0.015-1.731-0.019c0-0.123,0.021-0.259,0.03-0.377
			C85.303,73.613,85.88,73.587,86.453,73.562z M81.849,77.364c0.503-0.021,1.018-0.052,1.519-0.087
			c0.09,0.216,0.195,0.415,0.326,0.581c-0.692,0.051-1.396,0.087-2.087,0.145C81.637,77.828,81.723,77.614,81.849,77.364z
			 M81.759,37.104c0.102-0.144,0.216-0.284,0.312-0.428l0.144,0.009l-0.003,0.039c-0.03,0.288-0.066,0.583-0.108,0.875
			c-0.111-0.003-0.222-0.003-0.341-0.003C81.759,37.429,81.759,37.267,81.759,37.104z M83.335,49.521
			c0,0.12,0.009,0.238,0.009,0.352c-0.288,0.022-0.569,0.04-0.854,0.058c0.003-0.123,0.009-0.243,0.018-0.368
			C82.787,49.553,83.056,49.53,83.335,49.521z M82.568,48.808c0.009-0.108,0.024-0.216,0.036-0.326c0.144,0,0.291-0.003,0.44-0.003
			c0.084,0.012,0.171,0.012,0.255,0.015c0.009,0.096,0.015,0.192,0.021,0.284C83.065,48.786,82.823,48.799,82.568,48.808z
			 M82.957,57.233c-0.015,0.202-0.027,0.409-0.036,0.611c-0.105,0.006-0.213,0.006-0.317,0.009c-0.006-0.234-0.012-0.47-0.021-0.704
			c0.126-0.008,0.252-0.018,0.368-0.027C82.951,57.155,82.957,57.197,82.957,57.233z M83.185,73.704
			c-0.03,0.105-0.06,0.208-0.096,0.315c-0.243,0-0.485,0.004-0.737,0.006c0.003-0.099,0.021-0.192,0.027-0.295
			C82.649,73.724,82.921,73.713,83.185,73.704z M82.921,74.489c-0.045,0.111-0.081,0.22-0.12,0.326
			c-0.159,0.003-0.309,0.003-0.464,0.003c-0.006-0.109-0.006-0.214-0.006-0.319C82.526,74.495,82.718,74.495,82.921,74.489z
			 M82.951,71.075c0.051-0.16,0.093-0.319,0.138-0.478c0.279-0.027,0.563-0.061,0.845-0.093c-0.027,0.157-0.057,0.309-0.084,0.464
			C83.55,71.003,83.254,71.033,82.951,71.075z M83.293,69.937c0.036-0.121,0.072-0.246,0.102-0.37
			c0.252-0.04,0.503-0.082,0.74-0.123c-0.021,0.132-0.051,0.272-0.078,0.409L83.293,69.937z M83.461,40.791
			c0.018-0.136,0.03-0.267,0.048-0.4c0.18-0.01,0.371-0.019,0.554-0.031c0.189-0.006,0.377-0.012,0.569-0.021
			c-0.012,0.109-0.024,0.217-0.024,0.325C84.224,40.701,83.838,40.749,83.461,40.791z M81.106,69.947
			c-0.027,0.067-0.048,0.139-0.072,0.211c-0.276,0.029-0.551,0.045-0.824,0.067c0.006-0.049,0.015-0.093,0.015-0.145
			C80.525,70.037,80.819,69.995,81.106,69.947z M80.54,66.943c0.012-0.129,0.021-0.261,0.036-0.392
			c0.102-0.012,0.21-0.024,0.318-0.04c0.021,0.121,0.036,0.244,0.06,0.364C80.819,66.901,80.678,66.925,80.54,66.943z
			 M80.594,50.063c-0.006-0.132-0.012-0.264-0.018-0.398c0.234-0.013,0.47-0.024,0.704-0.037c-0.009,0.132-0.009,0.262-0.015,0.391
			C81.041,50.033,80.819,50.048,80.594,50.063z M80.546,48.928c-0.003-0.144-0.003-0.282-0.006-0.428c0.282,0,0.566,0,0.848-0.006
			c-0.018,0.126-0.033,0.255-0.045,0.385C81.077,48.886,80.81,48.91,80.546,48.928z M76.934,79.049
			c0.24-0.04,0.509-0.097,0.806-0.159c0.33-0.037,0.665-0.07,1-0.105c-0.024,0.126-0.039,0.255-0.066,0.38
			C78.097,79.13,77.516,79.098,76.934,79.049z M78.609,79.786c-0.006,0.064-0.018,0.133-0.03,0.202
			c-0.725-0.106-1.453-0.213-2.186-0.338C77.129,79.708,77.869,79.762,78.609,79.786z M78.456,49.809
			c-0.006,0.123-0.012,0.247-0.015,0.376c-0.21,0.008-0.413,0.016-0.617,0.023l0.024-0.192c0.081-0.051,0.141-0.112,0.177-0.171
			C78.165,49.834,78.312,49.824,78.456,49.809z M78.192,49.099c0.033-0.187,0.078-0.374,0.111-0.566
			c0.06-0.003,0.126-0.003,0.195-0.003c-0.012,0.183-0.015,0.365-0.018,0.548C78.381,49.09,78.285,49.096,78.192,49.099z
			 M78.315,52.217c-0.012,0.111-0.027,0.222-0.042,0.329c-0.21,0.017-0.419,0.024-0.626,0.042c0-0.133,0.006-0.267,0.006-0.401
			C77.878,52.199,78.103,52.203,78.315,52.217z M77.887,55.31c-0.027,0.186-0.054,0.377-0.084,0.563
			c-0.171,0.027-0.341,0.052-0.518,0.072l0.039-0.563c0-0.032,0-0.052,0-0.081C77.516,55.307,77.701,55.31,77.887,55.31z
			 M77.683,56.794c-0.018,0.082-0.03,0.171-0.036,0.253c-0.156,0.025-0.299,0.051-0.446,0.081c0.006-0.112,0.015-0.216,0.018-0.32
			C77.378,56.8,77.528,56.8,77.683,56.794z M77.249,77.39c0.042,0,0.081,0,0.129,0c0,0.201,0,0.4,0,0.596
			c0.009,0.241,0.156,0.359,0.35,0.392c-0.257,0.036-0.521,0.06-0.782,0.091C77.075,78.119,77.171,77.753,77.249,77.39z
			 M77.138,62.913c-0.063,0-0.132,0-0.198,0c0-0.454,0.009-0.903,0.021-1.357c0.072-0.012,0.138-0.012,0.213-0.019
			C77.15,61.992,77.144,62.456,77.138,62.913z M81.193,88.029c-0.18,0.328-0.401,0.614-0.638,0.843c-0.03-0.307-0.03-0.62,0-0.93
			c0.386-0.586,0.65-1.23,0.845-1.902c0.042,0.003,0.099,0.011,0.144,0.023C81.373,86.731,81.241,87.418,81.193,88.029z
			 M82.095,84.205c-0.111,0.045-0.222,0.087-0.336,0.123c0.045-0.269,0.09-0.539,0.126-0.806c0.006-0.042-0.003-0.075-0.012-0.109
			c0.171,0.007,0.341,0.007,0.506,0.015C82.299,83.642,82.203,83.913,82.095,84.205z M82.634,89.051
			c0.153-0.207,0.177-0.979,0.201-1.689c0.117-0.305,0.231-0.626,0.332-0.943c0.066,0.018,0.132,0.029,0.201,0.045
			c0.108,0.027,0.213,0.054,0.317,0.076C83.464,87.454,83.155,88.329,82.634,89.051z M83.97,84.968
			c-0.147-0.002-0.284-0.004-0.431-0.013c0.114-0.517,0.216-1.024,0.296-1.487c0.117,0,0.228,0.003,0.341,0.006
			C84.114,83.959,84.042,84.464,83.97,84.968z M90.002,86.966c0.105-0.253,0.186-0.523,0.258-0.794
			c0.344,0.015,0.689,0.025,1.027,0.036c-0.108,0.309-0.231,0.614-0.377,0.89C90.61,87.059,90.307,87.017,90.002,86.966z
			 M91.457,88.311c-0.144-0.009-0.29-0.019-0.44-0.031c0.126-0.111,0.24-0.22,0.353-0.337l0.234,0.019
			c0.003,0.118,0.018,0.238,0.033,0.361C91.577,88.318,91.523,88.318,91.457,88.311z M91.724,84.769
			c-0.036,0.153-0.081,0.303-0.126,0.455c-0.365-0.01-0.743-0.019-1.114-0.035c0.105-0.533,0.177-1.069,0.251-1.595
			c0.374-0.004,0.746-0.004,1.12-0.008C91.823,83.922,91.775,84.327,91.724,84.769z M75.644,82.352v0.972h0.985
			c0.794-0.028,0.979,0.057,1.773,0.052c-0.051,0.035-0.09,0.067-0.117,0.114c-0.012,0.003-0.015,0.015-0.024,0.017
			c-0.336,0.037-0.734,0.214-0.842,0.391c-0.09,0.138-0.159,0.275-0.237,0.415c-0.467-0.04-0.644-0.048-1.096-0.008l-0.443,0.016
			v5.804h0.734c0.141-0.069,0.282-0.147,0.41-0.228c0.219,0.025,0.473-0.027,0.608-0.085c0.569-0.247,1.042-0.596,1.447-1.023
			c0.069,0.097,0.18,0.151,0.311,0.16c0.021,0.347,0.075,0.696,0.18,1.05c0.012,0.051,0.042,0.093,0.066,0.126h1.075
			c0.33-0.147,0.632-0.33,0.899-0.56c0.183,0.374,0.509,0.584,1.018,0.536c0.764-0.066,1.333-0.494,1.755-1.125
			c0.042,0.003,0.069,0.012,0.111,0.007c0.12-0.007,0.252-0.004,0.371-0.01c0.051,0.32,0.135,0.633,0.267,0.927
			c0.078,0.192,0.377,0.178,0.671,0.085c0,0.004,0,0.007,0.006,0.013c0.039,0.075,0.117,0.115,0.21,0.126h0.24
			c0.299-0.039,0.65-0.193,0.773-0.274c0.309-0.22,0.566-0.481,0.812-0.767c0.159,0.118,0.431,0.079,0.686-0.002
			c1.204,0.097,2.414,0.241,3.618,0.335c0.147,0.337,0.365,0.589,0.656,0.707h0.818c0.398-0.106,0.71-0.324,0.973-0.617
			c0.27,0,0.551,0.008,0.827,0c0.012,0.035,0.027,0.067,0.042,0.102c0.12,0.237,0.827,0.039,1.186-0.163
			c0.069-0.003,0.153-0.008,0.222-0.013v-1.093c-0.114,0.012-0.222,0.017-0.332,0.024c-0.027-0.123-0.06-0.234-0.081-0.353
			c0.099-0.003,0.159-0.015,0.21-0.021c0.057,0.006,0.132,0,0.204-0.01v-0.741c-0.162,0.01-0.32,0.027-0.491,0.045
			c0-0.037,0-0.069,0-0.105c0.111-0.274,0.204-0.571,0.288-0.867c0.066,0,0.141,0,0.204,0v-4.997
			c-5.466-0.689-10.962-1.009-16.466-1.132c0.036-0.118,0.084-0.235,0.123-0.356c0.863,0.012,1.722,0.015,2.585,0
			c1.755-0.012,3.504-0.064,5.253-0.09c-0.051,0.003,0.263-0.009,0.719-0.031c2.612,0.292,5.223,0.62,7.787,1.045v-0.828
			c-0.85-0.132-1.713-0.255-2.564-0.37c0.111-0.07,0.192-0.148,0.162-0.201c0.365-0.24,0.629-0.606,0.836-1.038
			c0.159-0.011,0.329-0.019,0.497-0.035l-0.012,0.009c-0.614,0.527,0.683,0.521,0.982,0.34c0.039-0.019,0.066-0.037,0.099-0.058
			v-1.232c-0.099,0.09-0.195,0.18-0.294,0.274c-0.338-0.006-0.677-0.013-1.012-0.022c0.051-0.162,0.084-0.334,0.117-0.503
			c0.392-0.183,0.791-0.37,1.189-0.541v-0.794c-0.216,0.096-0.437,0.199-0.656,0.299c0.219-0.204,0.44-0.409,0.656-0.622V73.18
			c-0.009-0.004-0.027-0.004-0.042-0.004c0.018-0.024,0.033-0.054,0.042-0.078v-1.321c-0.054,0-0.117,0.004-0.168,0.009
			c0.054-0.085,0.114-0.178,0.168-0.264v-3.378c-0.305,0.132-0.593,0.27-0.869,0.433c0.288-0.331,0.581-0.663,0.869-0.999v-3.187
			h-0.267l0.207-0.241c0.018-0.008,0.039-0.013,0.06-0.016v-2.481c-0.108-0.051-0.213-0.099-0.32-0.148
			c0.03-1.072,0.06-2.15,0.099-3.229c0.075-0.011,0.153-0.018,0.222-0.025v-0.457l-0.204,0.021c0.015-0.62,0.036-1.246,0.051-1.869
			c0.039-0.009,0.072-0.016,0.105-0.019c0.012-0.004,0.039-0.013,0.048-0.019V52.95c-0.003,0-0.021,0-0.033,0
			c0.009-0.105,0.012-0.21,0.024-0.307c0.006-0.008,0.006-0.008,0.009-0.008V41.171c-0.389,0.033-0.782,0.061-1.168,0.096
			c0.009-0.106,0.027-0.211,0.03-0.315c0.383-0.057,0.761-0.112,1.138-0.172v-5.214c-0.24-0.088-0.482-0.166-0.725-0.243
			c0.024-0.07,0.051-0.142,0.075-0.219c0.213-0.683,0.434-1.384,0.65-2.083v-0.547v-5.649v-0.181v-1.24v-0.617v-0.606v-0.255
			c0-0.675-0.545-1.22-1.213-1.22H76.86c-0.674,0-1.222,0.545-1.222,1.22v13.97l0.006-0.003v14.144
			c0.219,0.013,0.428,0.035,0.653,0.046c-0.009,0.211-0.018,0.416-0.018,0.626c-0.216,0.021-0.422,0.048-0.635,0.072v1.165
			c0.171,0,0.341,0.008,0.515,0.01c-0.006,0.094-0.018,0.184-0.024,0.277c-0.168,0.015-0.324,0.039-0.491,0.054v0.902
			c0.129,0.015,0.255,0.033,0.386,0.046c-0.036,0.298-0.066,0.604-0.09,0.907c-0.096,0.029-0.198,0.079-0.297,0.138v0.569
			c0.006,0,0.006,0,0.012,0c0.075,0,0.15-0.008,0.219-0.008c-0.018,0.192-0.036,0.377-0.045,0.566
			c-0.063,0.015-0.12,0.029-0.186,0.042v0.967c0.036,0.006,0.078,0.017,0.105,0.018c-0.009,0.225-0.018,0.452-0.033,0.677h-0.072
			v21.973l0.836,0.066c0.74,0.081,1.264,0.154,2.004,0.232c0.132,0.309,0.662,0.29,1.015,0.111c1.881,0.187,3.762,0.37,5.649,0.526
			c1.39,0.112,2.782,0.217,4.172,0.293c0.892,0.052,1.785,0.094,2.678,0.135c0.12,0.006,0.243,0.013,0.356,0.015
			c-0.012,0.019-0.039,0.036-0.042,0.052c0,0.009,0,0.021-0.006,0.028c-2.21,0.043-4.421,0-6.637-0.069
			c-0.114-0.52-0.95-0.43-1.258-0.042c-2.725-0.083-5.34-0.139-8.059-0.042L75.644,82.352z M80.061,71.465
			c0.027-0.196,0.048-0.392,0.072-0.6c0.222-0.004,0.443-0.024,0.659-0.042c-0.06,0.186-0.126,0.371-0.18,0.558
			C80.427,71.408,80.241,71.434,80.061,71.465z M83.461,79.23c-1,0.021-1.995,0.017-2.986-0.009c0.03-0.091,0.051-0.177,0.072-0.27
			c0.746,0.084,1.51,0.073,2.264,0.027c0.617,0.081,1.231,0.162,1.854,0.236C84.257,79.218,83.859,79.221,83.461,79.23z
			 M84.677,74.499c0.548,0.006,1.105,0.012,1.65,0.025c-0.018,0.06-0.027,0.115-0.051,0.175c-0.009,0-0.03,0-0.033,0
			c-0.53,0.013-1.048,0.031-1.575,0.052C84.671,74.669,84.671,74.585,84.677,74.499z M85.982,77.713
			c0.168-0.204,0.336-0.436,0.491-0.713c0.072-0.004,0.15-0.01,0.225-0.021c0.057,0.241,0.123,0.476,0.201,0.708
			C86.593,77.695,86.285,77.71,85.982,77.713z M86.875,70.664c-0.47,0.04-0.95,0.085-1.429,0.133c0.057-0.16,0.111-0.32,0.168-0.487
			c0.467-0.054,0.925-0.102,1.393-0.156C86.965,70.327,86.923,70.497,86.875,70.664z M87.162,69.535
			c-0.446,0.04-0.887,0.088-1.333,0.133c0.06-0.187,0.123-0.367,0.18-0.556c0.449-0.079,0.896-0.156,1.339-0.244
			C87.285,69.09,87.225,69.312,87.162,69.535z M87.588,49.665c-0.027,0-0.051,0-0.072,0c-0.033,0-0.06,0.003-0.09,0.003
			c-0.186-0.082-0.446-0.055-0.665,0.024c-0.075,0.003-0.141,0.003-0.216,0.008l0.048-0.283c0.341-0.008,0.674-0.012,1.012-0.018
			C87.597,49.485,87.591,49.575,87.588,49.665z M88.208,74.065c-0.132,0-0.261,0-0.386-0.004c0-0.063,0-0.115,0-0.169
			c0.033-0.132,0.075-0.258,0.12-0.382c0.141-0.009,0.284-0.009,0.428-0.015C88.315,73.686,88.265,73.878,88.208,74.065z
			 M88.783,72.156c-0.144,0.008-0.288,0.018-0.437,0.021c0.039-0.129,0.072-0.259,0.108-0.389c0.153-0.015,0.305-0.03,0.461-0.039
			C88.867,71.883,88.825,72.022,88.783,72.156z M89.295,70.503c-0.168,0.004-0.338,0.019-0.512,0.029
			c0.048-0.19,0.096-0.376,0.138-0.557c0.186-0.021,0.368-0.035,0.557-0.049C89.412,70.115,89.355,70.303,89.295,70.503z
			 M89.645,69.34c-0.192,0.012-0.389,0.03-0.587,0.039c0.069-0.298,0.132-0.596,0.198-0.867c0.228-0.048,0.458-0.09,0.683-0.139
			C89.846,68.698,89.747,69.02,89.645,69.34z M89.343,58.982c0.111-0.013,0.219-0.018,0.326-0.027
			c-0.024,0.322-0.039,0.65-0.072,0.967c-0.081-0.004-0.162-0.012-0.24-0.016C89.349,59.605,89.343,59.292,89.343,58.982z
			 M90.058,43.417c-0.198-0.024-0.395-0.045-0.593-0.066c0.006-0.135,0.012-0.267,0.018-0.398c0.033-0.637-1.297-0.362-1.378,0.147
			c0,0.037-0.006,0.07-0.012,0.106c-0.165-0.016-0.338-0.031-0.506-0.045c0.018-0.166,0.021-0.328,0.033-0.493
			c0.524-0.06,1.054-0.117,1.584-0.156c0.353-0.029,0.71-0.045,1.048-0.072C90.193,42.767,90.118,43.091,90.058,43.417z
			 M90.457,77.577c0.219-0.292,0.395-0.604,0.551-0.94c0.039,0.323,0.102,0.635,0.183,0.936
			C90.945,77.572,90.699,77.572,90.457,77.577z M91.352,49.425c0.482,0.018,0.961,0.03,1.444,0.048c0,0.029,0,0.057-0.006,0.09
			c-0.47,0-0.937,0.012-1.411,0.023C91.373,49.53,91.361,49.478,91.352,49.425z M91.481,50.315c0-0.036,0-0.076-0.012-0.108
			c0.413-0.006,0.815-0.011,1.231-0.009c-0.021,0.139-0.042,0.283-0.057,0.424c-0.332-0.005-0.665-0.017-1-0.025
			C91.592,50.5,91.547,50.403,91.481,50.315z M91.763,62.194c-0.018-0.001-0.039-0.001-0.054-0.001
			c0.015-0.13,0.024-0.261,0.036-0.391c0.201,0.004,0.395,0.013,0.596,0.013C92.149,61.95,91.957,62.079,91.763,62.194z
			 M93.614,77.117c-0.21,0.253,0.042,0.361,0.315,0.392c-0.009,0.017-0.009,0.038-0.012,0.052c-0.312,0-0.617-0.01-0.932-0.01
			c0.147-0.268,0.285-0.565,0.419-0.876c0.225,0.022,0.503-0.021,0.713-0.088C93.943,76.764,93.772,76.931,93.614,77.117z
			 M94.41,57.016c-0.174,0.01-0.341,0.019-0.524,0.022c-0.033-0.084-0.069-0.166-0.114-0.251c0-0.126-0.009-0.261-0.009-0.391
			c0.255-0.029,0.506-0.067,0.758-0.105C94.491,56.54,94.452,56.778,94.41,57.016z M94.674,59.665
			c0.111-0.174,0.225-0.355,0.317-0.542c-0.024,0.654-0.036,1.315-0.054,1.965c-0.03-0.006-0.075-0.018-0.102-0.021
			C94.797,60.594,94.746,60.131,94.674,59.665z M95.276,70.411c-0.129-0.001-0.252-0.001-0.377-0.001
			c0.009-0.027,0.009-0.045,0.009-0.066c0.084-0.091,0.171-0.18,0.261-0.265c0.159-0.039,0.305-0.084,0.455-0.126
			C95.518,70.109,95.396,70.257,95.276,70.411z M96.597,65.922c-0.186,0.162-0.371,0.328-0.551,0.511
			c-0.282,0.036-0.557,0.064-0.851,0.097c0.009-0.124,0.009-0.249,0.009-0.361C95.668,66.086,96.135,66.001,96.597,65.922z
			 M96.207,42.062c-0.159,0.093-0.282,0.213-0.299,0.355c-0.063,0.404-0.105,0.809-0.165,1.213c-0.192-0.012-0.38-0.021-0.578-0.027
			c0.072-0.494,0.126-0.988,0.192-1.483C95.641,42.102,95.926,42.085,96.207,42.062z M92.149,34.483
			c-0.126-0.033-0.257-0.058-0.386-0.093c0.051-0.234,0.108-0.463,0.165-0.701l0.416-0.108
			C92.269,33.883,92.197,34.184,92.149,34.483z"/>
	</g>
	<g>
		<path d="M126.454,118.939h-6.032c-0.374,0-0.65,0.139-0.851,0.407c-0.201,0.274-0.153,0.554-0.153,0.875
			c0,0.343-0.048,1.213,0.153,1.469c0.201,0.259,0.476,0.388,0.851,0.388h3.861v3.765c0,1.792-0.461,3.11-1.375,3.964
			c-0.928,0.846-1.92,0.997-3.549,0.997c-1.635,0-2.896-0.151-3.807-0.997c-0.907-0.854-1.363-2.171-1.363-4.516v-11.656
			c0-1.24,0.455-2.562,1.363-3.414c0.911-0.848,2.172-0.994,3.807-0.994c1.707,0,2.725,0.198,3.561,0.888
			c0.608,0.511,1.033,1.156,1.171,2.135c0.069,0.352,0.147,0.578,0.398,0.756c0.272,0.193,0.83,0.157,1.144,0.157
			c0.35,0,1.216,0.036,1.479-0.157c0.258-0.201,0.267-0.463,0.267-0.831c0,0-0.015-0.278-0.021-0.368
			c-0.051-0.683-0.24-1.33-0.527-1.918c-0.404-0.836-0.83-1.334-1.581-1.912c-0.752-0.581-1.653-1.032-2.72-1.352
			c-1.063-0.317-2.24-0.476-3.531-0.476c-1.156,0-2.249,0.139-3.271,0.427c-1.024,0.28-1.92,0.741-2.678,1.385
			c-0.764,0.635-1.36,1.468-1.794,2.483c-0.437,1.021-0.656,2.273-0.656,3.193v11.656c0,2.028,0.219,3.272,0.656,4.295
			c0.434,1.015,1.03,1.846,1.794,2.489c0.758,0.639,1.659,1.099,2.698,1.382c1.036,0.282,2.147,0.421,3.33,0.421
			c1.177,0,2.294-0.139,3.33-0.421c1.042-0.283,1.944-0.743,2.716-1.382c0.779-0.643,1.387-1.474,1.818-2.489
			c0.434-1.023,0.65-2.267,0.65-3.742v-5.756c0-0.294-0.108-0.557-0.294-0.792C127.101,119.06,126.816,118.939,126.454,118.939z"/>
		<g>
			<path d="M81.702,107.958c-0.773-0.637-1.68-1.095-2.716-1.382c-1.039-0.284-2.156-0.424-3.33-0.424
				c-1.186,0-2.297,0.139-3.336,0.424c-1.036,0.288-1.935,0.746-2.699,1.382c-0.767,0.639-1.36,1.469-1.791,2.495
				c-0.434,1.015-0.653,2.267-0.653,3.741v11.657c0,1.473,0.219,2.719,0.653,3.738c0.431,1.021,1.024,1.851,1.791,2.49
				c0.764,0.639,1.662,1.104,2.699,1.387c1.039,0.284,2.15,0.422,3.336,0.422c1.174,0,2.291-0.138,3.33-0.422
				c1.036-0.283,1.944-0.747,2.716-1.387c0.779-0.639,1.384-1.469,1.812-2.49c0.437-1.018,0.65-2.264,0.65-3.738v-11.657
				c0-1.473-0.213-2.725-0.65-3.741C83.086,109.427,82.481,108.597,81.702,107.958z M80.579,125.85c0,1.794-0.458,3.116-1.378,3.961
				c-0.923,0.849-1.917,0.996-3.546,0.996c-1.632,0-2.63-0.147-3.534-0.996c-0.902-0.845-1.357-2.167-1.357-3.961v-11.657
				c0-1.793,0.455-3.116,1.357-3.962c0.904-0.848,1.902-0.997,3.534-0.997c1.629,0,2.624,0.15,3.546,0.997
				c0.919,0.846,1.378,2.17,1.378,3.962V125.85z"/>
			<path d="M104.785,118.953H98.75c-0.365,0-0.65,0.139-0.851,0.406c-0.195,0.269-0.15,0.548-0.15,0.87
				c0,0.346-0.045,1.212,0.15,1.463c0.201,0.267,0.485,0.391,0.851,0.391h3.864v3.768c0,1.794-0.458,3.116-1.378,3.961
				c-0.919,0.849-1.92,0.996-3.549,0.996s-2.896-0.147-3.807-0.996c-0.902-0.845-1.36-2.167-1.36-3.961v-11.657
				c0-1.793,0.458-3.116,1.36-3.962c0.911-0.848,2.177-0.997,3.807-0.997c1.71,0,2.728,0.193,3.558,0.885
				c0.614,0.509,1.039,1.158,1.183,2.132c0.066,0.356,0.144,0.575,0.395,0.755c0.269,0.199,0.827,0.165,1.141,0.165
				c0.347,0,1.216,0.035,1.479-0.165c0.258-0.196,0.27-0.458,0.27-0.825c0,0-0.018-0.278-0.027-0.361
				c-0.045-0.686-0.234-1.337-0.527-1.929c-0.398-0.828-0.83-1.337-1.581-1.912c-0.749-0.581-1.656-1.03-2.719-1.349
				c-1.063-0.32-2.243-0.478-3.525-0.478c-1.156,0-2.246,0.139-3.274,0.424c-1.024,0.288-1.917,0.746-2.68,1.382
				c-0.764,0.639-1.357,1.469-1.794,2.495c-0.428,1.015-0.644,2.267-0.644,3.741v11.657c0,1.473,0.216,2.719,0.644,3.738
				c0.437,1.021,1.03,1.851,1.794,2.49c0.764,0.639,1.665,1.104,2.701,1.387c1.039,0.284,2.147,0.422,3.33,0.422
				c1.18,0,2.291-0.138,3.33-0.422c1.036-0.283,1.947-0.747,2.722-1.387c0.773-0.639,1.378-1.469,1.809-2.49
				c0.431-1.018,0.653-2.264,0.653-3.738v-5.753c0-0.295-0.099-0.563-0.297-0.795C105.435,119.066,105.147,118.953,104.785,118.953z
				"/>
			<path d="M42.414,107.224c0-0.367-0.174-0.641-0.515-0.81c-0.338-0.174-2.222-0.174-2.561,0c-0.338,0.169-0.512,0.443-0.512,0.81
				v18.84h-0.003l-0.006-0.006c-0.278-0.49-10.503-18.978-10.86-19.387c-0.407-0.458-0.755-0.394-1.638-0.403
				c-0.737-0.009-1.114,0.051-1.27,0.126c-0.326,0.16-0.494,0.436-0.494,0.83v25.335c0,0.368,0.174,0.647,0.515,0.831
				c0.341,0.184,2.222,0.184,2.561,0c0.341-0.184,0.509-0.463,0.509-0.831v-18.846c0,0,0.087,0.145,0.237,0.406
				c1.551,2.716,10.291,18.578,10.614,18.951c0.419,0.505,1.039,0.421,1.674,0.428c0.898,0.013,1.051-0.036,1.213-0.105
				c0.359-0.145,0.536-0.446,0.536-0.836v0.002V107.224z"/>
		</g>
		<path d="M61.777,106.433c-0.318-0.189-0.659-0.281-1.021-0.281h-2.525v0.001h-3.495c-0.374,0-0.65,0.136-0.848,0.404
			c-0.201,0.272-0.156,0.827-0.156,1.147c0,0.351-0.045,0.934,0.156,1.195c0.198,0.261,0.473,0.386,0.848,0.386h3.932v16.564
			c0,1.794-0.467,3.044-1.372,3.89c-0.177,0.165-0.356,0.308-0.536,0.436c-0.875,0.541-1.992,0.652-3.369,0.652
			c-0.83,0-1.497-0.045-2.064-0.19c-0.566-0.204-1.045-0.485-1.446-0.863c-0.878-0.822-1.312-1.801-1.312-3.086
			c0-0.409-0.171-0.695-0.509-0.838c-0.338-0.15-2.061-0.166-2.351,0.043c-0.288,0.207-0.449,0.653-0.449,1.249
			c0,1.002,0.204,1.92,0.611,2.742c0.27,0.55,0.62,1.041,1.039,1.49c0.222,0.262,0.467,0.506,0.728,0.726
			c0.761,0.637,1.659,1.098,2.704,1.382c1.033,0.284,2.141,0.424,3.33,0.424c0.611,0,1.198-0.04,1.77-0.118
			c0.578-0.069,1.141-0.175,1.689-0.323c1.018-0.283,1.911-0.747,2.672-1.387c0.767-0.639,1.363-1.469,1.797-2.49
			c0.434-1.018,0.65-2.264,0.65-3.738v-18.593C62.25,106.892,62.091,106.616,61.777,106.433z"/>
		<path d="M19.236,106.988c0-0.365-0.141-0.648-0.41-0.843c-0.272-0.202-1.075-0.156-1.444-0.156c-0.329,0-1.021-0.046-1.306,0.156
			c-0.284,0.195-0.425,0.478-0.425,0.843v25.571c0.012,0.349,0.15,0.623,0.425,0.815c0.285,0.195,0.967,0.154,1.303,0.154
			c0.362,0,1.174,0.04,1.446-0.154c0.261-0.192,0.398-0.466,0.404-0.815L19.236,106.988z"/>
	</g>
</g>
</svg>
