<?xml version="1.0" encoding="utf-8"?>
<!-- Generator: Adobe Illustrator 24.1.2, SVG Export Plug-In . SVG Version: 6.00 Build 0)  -->
<svg version="1.1" id="Capa_1" xmlns="http://www.w3.org/2000/svg" xmlns:xlink="http://www.w3.org/1999/xlink" x="0px" y="0px"
	 width="28.3px" height="22.5px" viewBox="0 0 28.3 22.5" style="enable-background:new 0 0 28.3 22.5;" xml:space="preserve">
<style type="text/css">
	.st0{fill:#FFFFFF;}
</style>
<path class="st0" d="M24.1,11.3c0,5.7-4.6,10.2-10.2,10.2S3.7,16.9,3.7,11.3S8.3,1.1,13.9,1.1S24.1,5.6,24.1,11.3z M18.4,10.6H11
	l2.7-2.7c0.2-0.2,0.2-0.7,0-0.9S13,6.8,12.8,7L9,10.8l0,0c-0.3,0.2-0.2,0.7,0,0.9l3.8,3.8c0.2,0.2,0.7,0.2,0.9,0s0.2-0.7,0-0.9
	L11,11.9h7.4c0.3,0,0.6-0.2,0.6-0.6C19,11,18.8,10.7,18.4,10.6L18.4,10.6z"/>
</svg>
