<?xml version="1.0" encoding="utf-8"?>
<!-- Generator: Adobe Illustrator 24.1.2, SVG Export Plug-In . SVG Version: 6.00 Build 0)  -->
<svg version="1.1" id="Capa_1" xmlns="http://www.w3.org/2000/svg" xmlns:xlink="http://www.w3.org/1999/xlink" x="0px" y="0px"
	 width="28.3px" height="22.5px" viewBox="0 0 28.3 22.5" style="enable-background:new 0 0 28.3 22.5;" xml:space="preserve">
<path d="M13.9,21.5c5.6,0,10.2-4.6,10.2-10.2S19.5,1.1,13.9,1.1S3.7,5.7,3.7,11.3S8.3,21.5,13.9,21.5z M12.6,9.4
	c0,1.1-0.6,1.9-1.3,1.9c-0.7,0-1.3-0.9-1.3-1.9s0.6-1.9,1.3-1.9C12.1,7.5,12.6,8.3,12.6,9.4z M9.2,17c-0.3-0.2-0.4-0.6-0.2-0.9
	c1-1.8,2.9-2.9,5-2.9c2.1,0,3.9,1.1,5,2.9c0.2,0.3,0.1,0.7-0.2,0.9c-0.3,0.2-0.7,0.1-0.9-0.2c-0.8-1.4-2.3-2.2-3.9-2.2
	c-1.6,0-3.1,0.8-3.9,2.2C9.9,17,9.5,17.1,9.2,17z M16.5,11.3c-0.7,0-1.3-0.9-1.3-1.9s0.6-1.9,1.3-1.9c0.7,0,1.3,0.9,1.3,1.9
	S17.2,11.3,16.5,11.3z"/>
</svg>
