<?xml version="1.0" encoding="utf-8"?>
<!-- Generator: Adobe Illustrator 24.1.2, SVG Export Plug-In . SVG Version: 6.00 Build 0)  -->
<svg version="1.1" id="Capa_1" xmlns="http://www.w3.org/2000/svg" xmlns:xlink="http://www.w3.org/1999/xlink" x="0px" y="0px"
	 width="28.3px" height="22.5px" viewBox="0 0 28.3 22.5" style="enable-background:new 0 0 28.3 22.5;" xml:space="preserve">
<path d="M17.9,3.3v1.2h4.3c0.3,0,0.6,0.3,0.6,0.6c0,0.3-0.3,0.6-0.6,0.6h-0.7l-1.1,13.2c-0.1,1.3-1.2,2.3-2.5,2.3h-7.7
	c-1.3,0-2.4-1-2.5-2.3L6.8,5.8H6.1c-0.3,0-0.6-0.3-0.6-0.6c0-0.3,0.3-0.6,0.6-0.6h4.3V3.3c0-1,0.8-1.9,1.9-1.9H16
	C17,1.4,17.9,2.3,17.9,3.3z M11.7,3.3v1.2h4.9V3.3c0-0.3-0.3-0.6-0.6-0.6h-3.7C12,2.7,11.7,2.9,11.7,3.3z M9.8,7.7l0.6,10.5
	c0,0.3,0.3,0.6,0.6,0.6s0.6-0.3,0.6-0.6c0,0,0,0,0,0L11.1,7.6C11,7.2,10.8,7,10.4,7C10.1,7,9.8,7.3,9.8,7.7C9.8,7.6,9.8,7.6,9.8,7.7
	z M17.9,7c-0.3,0-0.6,0.2-0.7,0.6l-0.6,10.5c0,0.3,0.3,0.6,0.6,0.6c0.3,0,0.6-0.2,0.6-0.6l0.6-10.5C18.5,7.3,18.2,7,17.9,7z M14.1,7
	c-0.3,0-0.6,0.3-0.6,0.6v10.5c0,0.3,0.3,0.6,0.6,0.6c0.3,0,0.6-0.3,0.6-0.6V7.6C14.8,7.3,14.5,7,14.1,7z"/>
</svg>
