<?xml version="1.0" encoding="utf-8"?>
<!-- Generator: Adobe Illustrator 24.1.2, SVG Export Plug-In . SVG Version: 6.00 Build 0)  -->
<svg version="1.1" id="Capa_1" xmlns="http://www.w3.org/2000/svg" xmlns:xlink="http://www.w3.org/1999/xlink" x="0px" y="0px"
	 width="28.3px" height="22.5px" viewBox="0 0 28.3 22.5" style="enable-background:new 0 0 28.3 22.5;" xml:space="preserve">
<style type="text/css">
	.st0{fill:#FFFFFF;}
</style>
<path class="st0" d="M2.7,2.4c0-0.4,0.3-0.8,0.8-0.8h2.3c0.4,0,0.7,0.2,0.7,0.6l0.6,2.5h17.7c0.4,0,0.8,0.3,0.8,0.8c0,0,0,0.1,0,0.1
	l-2.3,9.7c-0.1,0.4-0.4,0.6-0.8,0.6H8.8c-0.4,0-0.7-0.3-0.8-0.6L5.8,5.6L5.2,3.1H3.5C3.1,3.1,2.7,2.8,2.7,2.4z M10.4,15.9
	c-1.7,0-3.1,1.4-3.1,3.1c0,1.7,1.4,3.1,3.1,3.1s3.1-1.4,3.1-3.1C13.4,17.2,12.1,15.9,10.4,15.9z M21.1,15.9c-1.7,0-3.1,1.4-3.1,3.1
	c0,1.7,1.4,3.1,3.1,3.1c1.7,0,3.1-1.4,3.1-3.1C24.1,17.2,22.8,15.9,21.1,15.9z M10.4,17.4c0.8,0,1.5,0.7,1.5,1.5s-0.7,1.5-1.5,1.5
	c-0.8,0-1.5-0.7-1.5-1.5S9.5,17.4,10.4,17.4z M21.1,17.4c0.8,0,1.5,0.7,1.5,1.5s-0.7,1.5-1.5,1.5s-1.5-0.7-1.5-1.5
	S20.2,17.4,21.1,17.4z"/>
</svg>
